<?xml version="1.0" standalone="no"?><!DOCTYPE svg PUBLIC "-//W3C//DTD SVG 1.1//EN" "http://www.w3.org/Graphics/SVG/1.1/DTD/svg11.dtd"><svg t="1762660665665" class="icon" viewBox="0 0 1024 1024" version="1.1" xmlns="http://www.w3.org/2000/svg" p-id="11652" xmlns:xlink="http://www.w3.org/1999/xlink" width="200" height="200"><path d="M512 512c0-94.4 76.8-171.2 171.2-171.2 94.4 0 171.2 76.8 171.2 171.2s-76.8 171.2-171.2 171.2C588.8 683.2 512 606.4 512 512z" fill="#1ABCFE" p-id="11653"></path><path d="M171.2 852.8c0-94.4 76.8-171.2 171.2-171.2H512v171.2C512 947.2 435.2 1024 340.8 1024s-169.6-76.8-169.6-171.2z" fill="#0ACF83" p-id="11654"></path><path d="M512 0v340.8h171.2c94.4 0 171.2-76.8 171.2-171.2S777.6 0 683.2 0H512z" fill="#FF7262" p-id="11655"></path><path d="M171.2 171.2c0 94.4 76.8 171.2 171.2 171.2H512V0H340.8c-94.4 0-169.6 76.8-169.6 171.2z" fill="#F24E1E" p-id="11656"></path><path d="M171.2 512c0 94.4 76.8 171.2 171.2 171.2H512V340.8H340.8c-94.4 0-169.6 76.8-169.6 171.2z" fill="#A259FF" p-id="11657"></path></svg>