<svg height="2498" overflow="hidden" width="2500" xmlns="http://www.w3.org/2000/svg" viewBox="2.5 2.5 1432 1431"><path d="M2.5 483.44C2.5 217.826 217.83 2.5 483.44 2.5h470.12c265.61 0 480.94 215.326 480.94 480.94v469.12c0 265.61-215.33 480.94-480.94 480.94H483.44C217.83 1433.5 2.5 1218.17 2.5 952.56z" fill="#1d1d1f" fill-rule="evenodd" stroke="#1d1d1f" stroke-miterlimit="8" stroke-width="4.583"/><path d="M773.54 273.183h120.4L1023.98 661.9c-1.38-16.97-2.98-36.58-4.82-58.82a2198.28 2198.28 0 0 1-4.47-66.74c-1.15-22.24-1.72-41.16-1.72-56.757v-206.4h90.81V775.42h-120.4L854.73 386.703c1.37 14.677 2.75 32.107 4.13 52.288 1.37 20.181 2.63 40.592 3.78 61.229 1.15 20.64 1.72 38.99 1.72 55.04v220.16h-90.82zm-445 0h103.2V627.5c0 21.1 5.39 37.27 16.17 48.51 10.78 11.23 26.03 16.85 45.75 16.85 19.27 0 34.4-5.62 45.41-16.85 11.01-11.24 16.51-27.41 16.51-48.51V273.183h103.2V628.19c0 47.24-14.79 84.74-44.37 112.49-29.59 27.75-69.83 41.62-120.75 41.62-50.91 0-91.16-13.76-120.74-41.28s-44.38-65.13-44.38-112.83z" stroke="#f5f5f7" stroke-width="3" stroke-linejoin="round" stroke-miterlimit="10" fill="#f5f5f7" fill-rule="evenodd"/><text fill-opacity="0" font-family="Arial,Arial_MSFontService,sans-serif" font-size="509.12" x="1810.54" y="1238.66" transform="translate(-1482 -520)">UN</text><path d="M987.1 1033.11v86.68h41.37c14.37 0 25.66-3.82 33.87-11.44 8.22-7.63 12.33-18.19 12.33-31.68 0-13.5-4.11-24.13-12.33-31.9-8.21-7.78-19.5-11.66-33.87-11.66zm0-128.04v76.12h38.73c12.9 0 23.02-3.45 30.36-10.34 7.33-6.9 11-16.21 11-27.94 0-12.03-3.67-21.34-11-27.94-7.34-6.6-17.46-9.9-30.36-9.9zm-63.79-53.24h103.4c21.41 0 40.11 3.44 56.1 10.34 15.98 6.89 28.45 16.5 37.4 28.82 8.94 12.32 13.41 26.84 13.41 43.56 0 18.18-4.98 33.36-14.95 45.54-9.98 12.17-22.88 19.43-38.72 21.78v.88c12.02 1.17 22.65 5.35 31.89 12.54 9.24 7.18 16.43 16.35 21.57 27.5 5.13 11.14 7.69 23.61 7.69 37.4 0 18.48-4.61 34.68-13.85 48.62-9.24 13.93-22.15 24.78-38.72 32.56-16.58 7.77-35.86 11.66-57.86 11.66H923.31zm-305.64 0h66v226.6c0 13.49 3.44 23.83 10.34 31.02 6.89 7.18 16.64 10.78 29.26 10.78 12.32 0 22-3.6 29.04-10.78 7.04-7.19 10.55-17.53 10.55-31.02v-226.6h66v227.04c0 30.21-9.45 54.19-28.37 71.94-18.92 17.74-44.66 26.62-77.22 26.62s-58.3-8.8-77.22-26.4c-18.93-17.6-28.38-41.66-28.38-72.16zm-301.36 0h66v124.96h73.92V851.83h66v321.2h-66v-136.84h-73.92v136.84h-66z" stroke="#f5f5f7" stroke-width="3" stroke-linejoin="round" stroke-miterlimit="10" fill="#f5f5f7" fill-rule="evenodd"/><text fill-opacity="0" font-family="Arial,Arial_MSFontService,sans-serif" font-size="325.6" x="1798.31" y="1656.73" transform="translate(-1482 -520)">HUB</text></svg>