<?xml version="1.0" standalone="no"?><!DOCTYPE svg PUBLIC "-//W3C//DTD SVG 1.1//EN" "http://www.w3.org/Graphics/SVG/1.1/DTD/svg11.dtd"><svg t="1762662647772" class="icon" viewBox="0 0 1024 1024" version="1.1" xmlns="http://www.w3.org/2000/svg" p-id="22323" xmlns:xlink="http://www.w3.org/1999/xlink" width="200" height="200"><path d="M766.325 538.73c0-122.326 102.979-173.423 102.979-173.423s-66.314-91.591-164.611-91.591c-82.85 0-113.392 39.005-177.401 39.005-63.542 0-98.765-39.005-175.998-39.005-98.296 0-223.429 95.292-223.429 264.43 0 227.17 159.148 421.305 247.301 421.305 40.408 0 88.093-37.906 155.245-37.912 65.538-0.01 106.097 37.885 150.41 37.885 40.255 0 77.232-20.625 135.743-97.391 58.509-76.764 79.572-142.822 79.572-142.822C882.405 714.215 766.325 661.053 766.325 538.73z" p-id="22324"></path><path d="M686.832 82.993c0-6.22-0.325-12.364-0.881-18.445C581.72 71.12 499.206 157.685 499.206 263.577c0 6.22 0.326 12.367 0.882 18.441C604.319 275.451 686.832 188.882 686.832 82.993z" p-id="22325"></path></svg>